<svg width="17.000000" height="20.000000" viewBox="0 0 17 20" fill="none" xmlns="http://www.w3.org/2000/svg" xmlns:xlink="http://www.w3.org/1999/xlink">
	<desc>
			Created with Pixso.
	</desc>
	<defs>
		<clipPath id="clip21_354">
			<rect id="bell 1" rx="-0.500000" width="16.000000" height="19.000000" transform="matrix(-1 0 0 1 17.5 0.5)" fill="white" fill-opacity="0"/>
		</clipPath>
	</defs>
	<rect id="bell 1" rx="-0.500000" width="16.000000" height="19.000000" transform="matrix(-1 0 0 1 17.5 0.5)" fill="#FFFFFF" fill-opacity="0"/>
	<g clip-path="url(#clip21_354)">
		<path id="Vector" d="M8.5 18.75C9.17 18.75 9.71 18.18 9.71 17.49L10.92 17.49C10.92 18.87 9.83 20 8.5 20C7.16 20 6.07 18.87 6.07 17.49L7.28 17.49C7.28 18.18 7.83 18.75 8.5 18.75ZM0.55 13.07C1.61 12.03 2.42 10.95 2.42 7.26C2.42 4.15 4.83 1.61 7.89 1.31L7.89 0.62C7.89 0.27 8.16 0 8.5 0C8.83 0 9.1 0.27 9.1 0.62L9.1 1.31C12.16 1.61 14.57 4.15 14.57 7.26C14.57 10.95 15.38 12.03 16.44 13.07C16.97 13.59 17.14 14.38 16.87 15.07C16.59 15.79 15.93 16.25 15.17 16.25L1.82 16.25C1.06 16.25 0.4 15.79 0.12 15.07C-0.15 14.38 0.02 13.59 0.55 13.07ZM1.82 15L15.17 15C15.71 15 15.98 14.35 15.6 13.98C14.28 12.68 13.35 11.23 13.35 7.26C13.35 4.63 11.18 2.5 8.5 2.5C5.81 2.5 3.64 4.62 3.64 7.26C3.64 11.22 2.72 12.67 1.39 13.98C1.01 14.35 1.28 15 1.82 15Z" fill="#000000" fill-opacity="1.000000" fill-rule="nonzero"/>
	</g>
</svg>
