<svg width="17.000000" height="12.750000" viewBox="0 0 17 12.75" fill="none" xmlns="http://www.w3.org/2000/svg" xmlns:xlink="http://www.w3.org/1999/xlink">
	<desc>
			Created with Pixso.
	</desc>
	<defs/>
	<path id="Vector" d="M5.31 5.08C5.31 4.79 5.55 4.55 5.84 4.55L10.62 4.55L10.62 1.43C10.62 1.19 10.91 1.07 11.07 1.24L15.77 5.99C15.98 6.2 15.98 6.54 15.77 6.75L11.07 11.5C10.91 11.66 10.62 11.55 10.62 11.31L10.62 8.19L5.84 8.19C5.55 8.19 5.31 7.95 5.31 7.66L5.31 5.08ZM4.25 5.08L4.25 7.66C4.25 8.54 4.96 9.25 5.84 9.25L9.56 9.25L9.56 11.31C9.56 12.49 10.99 13.08 11.82 12.25L16.53 7.5C17.15 6.87 17.15 5.87 16.53 5.24L11.82 0.49C10.99 -0.34 9.56 0.25 9.56 1.43L9.56 3.48L5.84 3.48C4.96 3.48 4.25 4.2 4.25 5.08ZM0 1.59L0 11.15C0 12.03 0.71 12.75 1.59 12.75L5.97 12.75C6.19 12.75 6.37 12.57 6.37 12.35L6.37 12.08C6.37 11.86 6.19 11.68 5.97 11.68L1.59 11.68C1.3 11.68 1.06 11.44 1.06 11.15L1.06 1.59C1.06 1.3 1.3 1.06 1.59 1.06L5.97 1.06C6.19 1.06 6.37 0.88 6.37 0.66L6.37 0.39C6.37 0.17 6.19 0 5.97 0L1.59 0C0.71 0 0 0.71 0 1.59Z" fill="#000000" fill-opacity="1.000000" fill-rule="nonzero"/>
</svg>
