<svg width="11.228760" height="82.800003" viewBox="0 0 11.2288 82.8" fill="none" xmlns="http://www.w3.org/2000/svg" xmlns:xlink="http://www.w3.org/1999/xlink">
	<desc>
			Created with Pixso.
	</desc>
	<defs/>
	<path id="Vector" d="M0.2 10.35L2.8 10.35L3.64 3.1C3.76 2.14 3.9 1.35 4.07 0.81C4.24 0.28 4.42 0 4.61 0L6.61 0C6.8 0 6.98 0.28 7.15 0.81C7.32 1.35 7.46 2.14 7.57 3.1L8.42 10.35L11.02 10.35C11.08 10.35 11.13 10.48 11.16 10.72C11.2 10.97 11.22 11.3 11.22 11.64L11.22 14.23C11.22 14.57 11.2 14.9 11.16 15.14C11.13 15.38 11.08 15.52 11.02 15.52L10.55 15.52L9.72 75.73C9.69 77.66 9.55 79.45 9.33 80.76C9.11 82.07 8.82 82.79 8.52 82.8L2.7 82.8C2.4 82.79 2.11 82.07 1.89 80.76C1.67 79.45 1.53 77.66 1.5 75.73L0.67 15.52L0.2 15.52C0.14 15.52 0.09 15.38 0.05 15.14C0.02 14.9 0 14.57 0 14.23L0 11.64C0 11.3 0.02 10.97 0.05 10.72C0.09 10.48 0.14 10.35 0.2 10.35ZM6.93 6.21C6.9 5.88 6.85 5.62 6.79 5.44C6.74 5.27 6.67 5.17 6.61 5.17L4.61 5.17C4.54 5.17 4.48 5.27 4.43 5.44C4.37 5.62 4.32 5.88 4.29 6.21L3.8 10.35L7.41 10.35L6.93 6.21ZM2.3 75.26C2.31 75.9 2.35 76.5 2.43 76.94C2.5 77.38 2.6 77.62 2.7 77.62L8.52 77.62C8.62 77.62 8.72 77.38 8.79 76.94C8.86 76.5 8.91 75.9 8.92 75.26L9.75 15.52L1.47 15.52L2.3 75.26Z" fill="#FEAF00" fill-opacity="1.000000" fill-rule="nonzero"/>
</svg>
