<svg width="14.000000" height="22.000000" viewBox="0 0 14 22" fill="none" xmlns="http://www.w3.org/2000/svg" xmlns:xlink="http://www.w3.org/1999/xlink">
	<desc>
			Created with Pixso.
	</desc>
	<defs>
		<clipPath id="clip21_315">
			<rect id="sort 1" rx="-0.500000" width="13.000000" height="21.000000" transform="translate(0.500000 0.500000)" fill="white" fill-opacity="0"/>
		</clipPath>
	</defs>
	<rect id="sort 1" rx="-0.500000" width="13.000000" height="21.000000" transform="translate(0.500000 0.500000)" fill="#FFFFFF" fill-opacity="0"/>
	<g clip-path="url(#clip21_315)">
		<path id="Vector" d="M12.6 12.37L1.39 12.37C0.15 12.37 -0.48 13.85 0.41 14.72L6.01 20.22C6.55 20.75 7.44 20.75 7.99 20.22L13.59 14.72C14.46 13.85 13.84 12.37 12.6 12.37ZM7 19.25L1.39 13.75L12.6 13.75L7 19.25ZM1.39 9.62L12.6 9.62C13.84 9.62 14.47 8.14 13.58 7.27L7.98 1.77C7.44 1.24 6.55 1.24 6 1.77L0.4 7.27C-0.47 8.14 0.15 9.62 1.39 9.62ZM7 2.75L12.6 8.25L1.39 8.25L7 2.75Z" fill="#FEAF00" fill-opacity="1.000000" fill-rule="nonzero"/>
	</g>
</svg>
